<svg width="240" height="40" viewBox="0 0 240 40" fill="none" xmlns="http://www.w3.org/2000/svg">
<g id="Logo" clip-path="url(#clip0_2759_8930)">
<path id="Vector" d="M50.3835 15.1068C50.331 14.241 50.1998 13.1916 49.7274 12.1684C49.2287 11.1714 48.3626 10.2269 47.2604 9.64973C46.1318 9.07252 44.7409 8.86265 43.1661 8.8364C41.5914 8.81016 39.833 8.94138 38.652 9.04628C37.4973 9.15125 36.9199 9.22998 36.5 9.38737C36.08 9.51858 35.8176 9.72846 35.6339 10.0695C35.4502 10.4106 35.3452 10.9091 35.5027 11.3813C35.6601 11.8273 36.08 12.2209 36.5262 12.3782C36.9724 12.5095 37.4185 12.4045 38.3633 12.2733C39.3081 12.1421 40.7516 11.9847 42.2476 11.9847C43.7173 11.9847 45.2395 12.1159 46.1581 12.7456C47.0766 13.3752 47.3916 14.5034 47.3916 18.1239C42.3788 18.019 40.4629 18.2814 38.9932 18.7273C37.471 19.1996 36.4212 19.8817 35.7651 20.7475C35.109 21.6133 34.8465 22.6627 34.7678 23.922C34.6891 25.1813 34.7678 26.6505 35.109 27.805C35.4502 28.9331 36.0538 29.7201 36.9724 30.3498C37.9172 31.0057 39.1769 31.5042 40.8828 31.5304C42.5625 31.5567 44.6621 31.1106 47.3653 29.4053C47.3653 29.5628 47.3653 29.7464 47.3653 29.9038C47.3653 30.7696 48.0739 31.4517 48.9138 31.4517C49.7536 31.4517 50.4622 30.7434 50.4622 29.9038C50.4622 26.0733 50.4622 22.2167 50.4622 18.3863C50.436 16.6285 50.436 15.9726 50.3835 15.1068ZM47.3391 25.7061C44.0584 27.7525 42.8774 28.0935 41.8539 28.2509C40.7778 28.4083 39.8855 28.3034 39.2557 28.0411C38.5995 27.7787 38.2059 27.3326 38.0221 26.6243C37.8122 25.8897 37.8122 24.8927 37.8647 24.1319C37.9172 23.3448 37.9959 22.7939 38.5733 22.3478C39.1507 21.9019 40.2005 21.5608 41.5128 21.4034C42.7463 21.246 44.1897 21.246 47.3653 21.2722C47.3391 22.7414 47.3391 24.2106 47.3391 25.7061Z" fill="#6530F7"/>
<path id="Vector_2" d="M17.2863 9.62458C17.0501 9.15227 16.604 8.78501 15.9478 8.78501C15.2917 8.81125 14.4256 9.231 14.3207 10.4378C11.9061 8.68004 9.25541 8.60138 7.18205 8.91615C5.08249 9.25725 3.56029 9.99184 2.48425 11.0413C1.40822 12.117 0.778339 13.4812 0.437156 14.6094C0.0959732 15.7112 0.0434839 16.5508 0.0172391 17.9938C-0.00900576 19.4367 -0.0090059 21.4831 0.0434838 22.9261C0.122218 24.3691 0.253443 25.2086 0.67336 26.3105C1.11952 27.4386 1.88062 28.8292 3.5078 29.931C5.10873 31.0067 7.54951 31.8201 14.3732 31.033C14.3732 32.2398 14.3732 32.5809 14.3732 32.9219C14.3732 33.4204 14.3732 33.8402 14.2157 34.2862C14.0582 34.7322 13.717 35.2044 13.0872 35.4931C12.4573 35.8079 11.5125 35.9653 10.4889 36.0703C9.46536 36.1752 8.33687 36.2277 7.2083 36.0965C6.07979 35.9653 4.95126 35.6505 4.29514 35.3357C3.63903 35.0208 3.48156 34.6797 3.29784 34.3387C3.11413 33.9976 2.93041 33.6303 2.61548 33.4466C2.30054 33.263 1.88062 33.263 1.48695 33.368C1.09327 33.4991 0.725849 33.7353 0.515891 34.0763C0.305932 34.4174 0.253442 34.8634 0.463401 35.4668C0.67336 36.0703 1.14576 36.8311 1.93311 37.4607C2.7467 38.0904 3.87523 38.5627 5.26621 38.8513C6.65718 39.1399 8.28436 39.2448 9.80657 39.1661C11.3288 39.0874 12.746 38.8775 13.9795 38.4052C15.213 37.933 16.289 37.2246 16.8402 36.044C17.3913 34.8634 17.4438 33.2105 17.47 32.0037C17.4963 30.7969 17.4963 30.0623 17.4963 27.1239C17.4963 24.2116 17.4963 19.0957 17.4963 16.0786C17.4963 13.0352 17.4963 12.0645 17.4963 11.3299C17.5225 10.6215 17.5225 10.0706 17.2863 9.62458ZM14.3994 27.8585C7.28706 28.8817 5.52865 27.8585 4.55759 26.704C3.56029 25.5235 3.35033 24.2379 3.24535 22.7424C3.14038 21.247 3.14038 19.5154 3.14038 18.3349C3.14038 17.1542 3.14038 16.4721 3.40282 15.6588C3.66527 14.8193 4.21641 13.8485 4.95126 13.1664C5.68612 12.5105 6.60469 12.1694 7.73321 12.012C8.86177 11.8546 10.174 11.8546 11.2238 12.2219C12.2736 12.6155 13.0609 13.3763 13.5333 14.1371C14.032 14.9242 14.2157 15.685 14.3207 16.3934C14.4256 17.0755 14.4256 17.6789 14.4256 21.4306C14.3994 23.1098 14.3994 25.471 14.3994 27.8585Z" fill="#6530F7"/>
<path id="Vector_3" d="M25.1051 10.1744C27.5196 9.02005 29.068 8.88883 30.0128 8.8101C31.0364 8.73145 31.3776 8.73145 31.6925 8.86259C32.0337 8.99381 32.3486 9.25617 32.5323 9.62343C32.716 9.99077 32.7948 10.4892 32.6111 10.909C32.4273 11.3287 32.0337 11.6961 31.5875 11.8272C31.1151 11.9584 30.5902 11.8797 29.5142 12.0109C28.5431 12.1421 27.0997 12.4307 25.1051 13.7425C25.1051 19.0946 25.1051 24.4467 25.1051 29.7726C25.1051 30.6383 24.3964 31.3467 23.5304 31.3467C22.6642 31.3467 21.9556 30.6383 21.9556 29.7726C21.9556 23.2923 21.9556 16.7859 21.9556 10.3055C21.9556 9.46604 22.6118 8.78393 23.4516 8.73145C24.2915 8.73145 25.0001 9.33483 25.1051 10.1744Z" fill="#6530F7"/>
<path id="Vector_4" d="M68.3565 9.91172C68.9077 7.94405 71.9521 8.73113 71.4011 10.7513C69.7738 16.6018 68.1466 22.4787 66.5193 28.3292C66.0207 30.1395 64.3673 31.3988 62.504 31.3988C60.6143 31.3988 58.9871 30.1395 58.4885 28.3292C56.8613 22.4787 55.2341 16.6018 53.6332 10.7513C53.0558 8.73113 56.1264 7.94405 56.6776 9.91172C58.3047 15.7885 59.9319 21.6391 61.5328 27.516C61.6641 27.962 62.0577 28.2768 62.5301 28.2768C63.0026 28.2768 63.3962 27.962 63.5274 27.516C65.1021 21.6391 66.7294 15.7885 68.3565 9.91172Z" fill="#6530F7"/>
<path id="Vector_5" d="M77.5425 0.651367C76.6761 0.651367 75.9681 1.35975 75.9681 2.22556C75.9681 2.80275 75.9681 3.35372 75.9681 3.93092C75.9681 4.79673 76.6761 5.53135 77.5425 5.53135C78.4089 5.53135 79.117 4.82297 79.117 3.93092C79.117 3.35372 79.117 2.80275 79.117 2.22556C79.117 1.35975 78.4089 0.651367 77.5425 0.651367Z" fill="#6530F7"/>
<path id="Vector_6" d="M99.9287 10.8031C101.74 16.7586 103.551 22.7141 105.361 28.6696C105.782 30.0602 106.963 31.162 108.616 31.3719C108.59 31.4506 108.563 31.5294 108.537 31.6081C108.327 32.2902 108.039 33.2084 107.776 33.9955C107.514 34.7826 107.277 35.4122 106.49 35.7533C105.703 36.0944 104.39 36.1468 103.341 36.0419C102.291 35.937 101.556 35.6746 100.926 35.6746C100.296 35.6746 99.8238 35.9107 99.5353 36.3568C99.2467 36.8028 99.1939 37.4586 99.3776 37.9309C99.5613 38.4031 99.9815 38.6917 100.795 38.9016C101.609 39.1115 102.842 39.2427 104.023 39.2427C105.204 39.2689 106.359 39.164 107.33 38.7967C108.301 38.4294 109.115 37.7997 109.666 37.0389C110.243 36.2781 110.558 35.3598 110.768 34.7564C110.978 34.1529 111.083 33.8381 111.319 33.0511C111.555 32.2902 111.923 31.0571 118.091 10.8031C118.694 8.80917 115.676 7.91711 115.072 9.88479C113.261 15.8404 111.45 21.7696 109.639 27.7252C109.429 28.381 108.485 28.4073 108.274 27.7514C106.464 21.7959 104.653 15.8404 102.842 9.88479C102.579 9.04529 101.688 8.59922 100.874 8.83534C100.139 9.0977 99.6662 9.98976 99.9287 10.8031Z" fill="#6530F7"/>
<path id="Vector_7" d="M77.2842 8.75879C76.4178 8.75879 75.7091 9.46721 75.7091 10.333C75.7091 16.8394 75.7091 23.3197 75.7091 29.8262C75.7091 30.692 76.4178 31.4266 77.2842 31.4266C78.1499 31.4266 78.8586 30.7182 78.8586 29.8262C78.8586 23.3197 78.8586 16.8394 78.8586 10.333C78.8847 9.46721 78.1767 8.75879 77.2842 8.75879Z" fill="#6530F7"/>
<path id="Vector_8" d="M91.1148 9.59656C91.1148 8.5996 91.1148 7.60266 91.1148 6.6057C91.1148 6.47452 91.1148 6.05475 91.1148 5.89733C91.0888 5.63498 90.9832 5.39885 90.8263 5.16273C90.5377 4.74295 90.0647 4.50684 89.5404 4.50684C89.0414 4.50684 88.5691 4.74295 88.2538 5.16273C88.0969 5.39885 88.0181 5.60874 87.9653 5.89733C87.9392 6.02851 87.9653 6.44828 87.9653 6.6057C87.9653 7.60266 87.9653 8.5996 87.9653 9.59656C86.968 9.59656 85.9707 9.59656 84.9734 9.59656C84.8425 9.59656 84.4223 9.59656 84.2914 9.59656C84.0021 9.6228 83.7663 9.72778 83.5299 9.88516C83.1104 10.1738 82.8739 10.646 82.8739 11.1707C82.8739 11.6692 83.1104 12.1414 83.5299 12.4563C83.7663 12.6137 84.0021 12.7187 84.2914 12.7449C84.4223 12.7449 84.8425 12.7449 84.9734 12.7449C85.9707 12.7449 86.968 12.7449 87.9653 12.7449C87.9653 26.1514 87.9653 27.2795 88.1229 28.1453C88.2806 29.0636 88.5691 29.6932 89.0154 30.1917C89.4616 30.6639 90.0915 30.9788 90.7474 31.1624C91.4034 31.3461 92.1121 31.3723 92.8469 31.3985C93.5817 31.3985 94.3432 31.3985 95.0252 31.3461C95.7079 31.2936 96.259 31.2411 96.6524 30.9001C97.0459 30.5853 97.2563 30.0081 97.1775 29.4833C97.0986 28.9586 96.7313 28.4864 96.3378 28.2765C95.9697 28.0666 95.5763 28.119 94.9203 28.1715C94.2644 28.224 93.3192 28.3028 92.6372 28.2765C91.9805 28.2503 91.6131 28.1453 91.4034 27.9092C91.1937 27.6731 91.1409 27.3582 91.1409 26.886C91.1148 26.44 91.1148 25.8628 91.1148 12.7711C92.1121 12.7711 93.1094 12.7711 94.1067 12.7711C94.2644 12.7711 94.6839 12.7711 94.8415 12.7449C95.104 12.7187 95.3138 12.6137 95.5503 12.4563C95.9697 12.1677 96.2062 11.6955 96.2062 11.1707C96.2062 10.6722 95.9697 10.2 95.5503 9.88516C95.3405 9.72778 95.104 9.64905 94.8415 9.59656C94.6839 9.57032 94.2644 9.57032 94.1067 9.57032C93.1094 9.59656 92.1121 9.59656 91.1148 9.59656Z" fill="#6530F7"/>
<path id="Vector_9" d="M184.652 27.6219C184.206 27.6219 183.707 27.7793 182.447 27.9368C181.187 28.1204 179.167 28.3303 177.487 28.2778C175.807 28.2253 174.469 27.9105 173.576 27.1759C172.685 26.4412 172.264 25.2869 172.055 24.3162C171.844 23.3717 171.844 22.6371 171.844 21.1154C176.647 21.1154 181.45 21.1154 186.227 21.1154C186.227 19.0953 186.227 17.6261 186.069 16.2355C185.911 14.8451 185.571 13.5595 184.783 12.3264C183.996 11.0933 182.736 9.93892 180.978 9.30929C179.219 8.67959 176.988 8.60093 175.151 8.99444C173.288 9.38802 171.818 10.2538 170.821 11.4344C169.798 12.615 169.246 14.1367 168.984 15.2386C168.695 16.3405 168.695 17.0489 168.695 18.1508C168.695 19.2526 168.695 20.7218 168.695 21.8238C168.695 22.9256 168.695 23.6865 168.957 24.8147C169.22 25.9428 169.719 27.4382 170.69 28.6189C171.661 29.7995 173.104 30.639 174.679 31.0588C176.28 31.4785 178.012 31.4523 179.718 31.3736C181.424 31.2687 183.13 31.1113 184.153 30.9014C185.177 30.7177 185.544 30.4816 185.78 30.2192C186.043 29.9568 186.174 29.6158 186.174 29.2485C186.174 28.855 186.043 28.409 185.754 28.0941C185.492 27.7793 185.098 27.6219 184.652 27.6219ZM174.915 12.3264C176.516 11.723 178.406 11.723 180.006 12.3002C181.608 12.8774 182.919 14.058 183.025 17.9147C179.272 17.9147 175.519 17.9147 171.792 17.9147C171.949 14.1629 173.314 12.9298 174.915 12.3264Z" fill="#6530F7"/>
<path id="Vector_10" d="M239.899 18.071C239.899 16.0246 239.899 14.7653 239.295 13.2961C238.692 11.8269 237.511 10.1478 235.411 9.3607C233.312 8.54737 230.32 8.59986 226.383 9.78045C226.383 7.7078 226.383 5.66142 226.383 3.5888C226.357 2.72302 225.649 2.01465 224.782 2.01465C223.916 2.01465 223.208 2.72302 223.208 3.5888C223.208 12.3516 223.208 21.0881 223.208 29.8509C223.208 30.7166 223.916 31.425 224.782 31.425C225.649 31.425 226.357 30.7166 226.357 29.8509C226.357 24.2889 226.357 18.7268 226.357 13.1648C227.748 12.4565 230.189 11.9055 232.052 11.9318C233.916 11.958 235.175 12.509 235.883 13.5059C236.566 14.5029 236.671 15.8934 236.724 16.6804C236.776 17.4938 236.776 17.7036 236.776 18.3333C236.776 18.963 236.776 20.0387 236.776 29.8509C236.776 30.7166 237.485 31.425 238.351 31.425C239.217 31.425 239.925 30.7166 239.925 29.8509C239.925 25.6532 239.925 21.4816 239.925 17.2839" fill="#6530F7"/>
<path id="Vector_11" d="M162.633 30.8216C162.947 31.1888 163.368 31.425 163.866 31.425C164.207 31.425 164.549 31.3201 164.837 31.1102C165.152 30.8478 165.362 30.4805 165.414 30.0607C165.467 29.641 165.335 29.2474 165.1 28.9064C162.711 25.8368 160.323 22.7934 157.961 19.7238C157.987 19.6976 158.014 19.6451 158.066 19.6189C160.402 16.8904 162.738 14.1356 165.073 11.407C165.335 11.0923 165.467 10.6724 165.441 10.2527C165.414 9.83294 165.204 9.4656 164.916 9.20324C164.549 8.88847 164.154 8.80974 163.892 8.80974C163.42 8.80974 163 9.01961 162.711 9.3607C159.981 12.5877 157.226 15.7885 154.497 19.0155C154.497 13.8733 154.497 8.73101 154.497 3.5888C154.497 2.72302 153.788 2.01465 152.922 2.01465C152.056 2.01465 151.347 2.72302 151.347 3.5888C151.347 12.3516 151.347 21.0881 151.347 29.8509C151.347 30.7166 152.056 31.425 152.922 31.425C153.342 31.425 153.735 31.2676 154.024 30.9527C154.339 30.6379 154.497 30.2444 154.497 29.8246C154.497 26.6763 154.497 23.5018 154.497 20.3535C157.173 23.8166 159.903 27.3322 162.633 30.8216Z" fill="#6530F7"/>
<path id="Vector_12" d="M145.337 9.25538C147.594 9.57016 147.122 12.7447 144.917 12.4037C141.427 11.8527 139.905 11.8789 138.75 11.9314C136.44 12.0363 135.522 12.2724 135.233 13.3481C135.102 13.8991 135.128 14.6337 135.81 15.4208C136.492 16.1816 137.831 16.9949 139.721 18.0443C141.611 19.0938 144.051 20.4056 145.311 22.0846C146.571 23.7638 146.65 25.8364 146.098 27.463C145.547 29.0896 144.34 30.244 142.87 30.8474C141.401 31.4509 139.642 31.4509 137.936 31.3721C136.257 31.2935 134.629 31.136 132.372 30.9261C130.352 30.7425 130.693 27.5679 132.74 27.7779C135.968 28.0926 138.382 28.3025 140.009 28.1976C141.637 28.0926 142.45 27.6467 142.896 26.9121C143.343 26.1775 143.448 25.1543 143.001 24.2623C142.555 23.3702 141.585 22.6356 139.957 21.7174C138.33 20.7991 136.073 19.6972 134.551 18.4904C133.055 17.2835 132.293 16.0242 132.084 14.6074C131.874 13.1907 132.241 11.6691 133.133 10.6196C134.052 9.57016 135.495 9.04544 137.464 8.83556C139.458 8.65193 141.899 8.78307 145.337 9.25538Z" fill="#6530F7"/>
<path id="Vector_13" d="M196.725 9.59656C196.725 8.5996 196.725 7.60266 196.725 6.6057C196.725 6.47452 196.725 6.05475 196.725 5.89733C196.699 5.63498 196.594 5.39885 196.436 5.16273C196.148 4.74295 195.675 4.50684 195.15 4.50684C194.652 4.50684 194.18 4.74295 193.864 5.16273C193.707 5.39885 193.628 5.60874 193.576 5.89733C193.55 6.02851 193.576 6.44828 193.576 6.6057C193.576 7.60266 193.576 8.5996 193.576 9.59656C192.579 9.59656 191.581 9.59656 190.584 9.59656C190.452 9.59656 190.033 9.59656 189.901 9.59656C189.613 9.6228 189.377 9.72778 189.14 9.88516C188.72 10.1738 188.484 10.646 188.484 11.1707C188.484 11.6692 188.72 12.1414 189.14 12.4563C189.377 12.6137 189.613 12.7187 189.901 12.7449C190.033 12.7449 190.452 12.7449 190.584 12.7449C191.581 12.7449 192.579 12.7449 193.576 12.7449C193.576 26.1514 193.576 27.2795 193.733 28.1453C193.89 29.0636 194.179 29.6932 194.625 30.1917C195.071 30.6639 195.701 30.9788 196.358 31.1624C197.014 31.3461 197.723 31.3723 198.457 31.3985C199.192 31.3985 199.953 31.3985 200.636 31.3461C201.318 31.2936 201.869 31.2411 202.263 30.9001C202.656 30.5853 202.866 30.0081 202.787 29.4833C202.709 28.9586 202.342 28.4864 201.948 28.2765C201.554 28.0666 201.187 28.119 200.531 28.1715C199.874 28.224 198.93 28.3028 198.247 28.2765C197.591 28.2503 197.224 28.1453 197.014 27.9092C196.804 27.6731 196.751 27.3582 196.751 26.886C196.725 26.44 196.725 25.8628 196.725 12.7711C197.723 12.7711 198.72 12.7711 199.717 12.7711C199.874 12.7711 200.294 12.7711 200.452 12.7449C200.715 12.7187 200.924 12.6137 201.161 12.4563C201.58 12.1677 201.817 11.6955 201.817 11.1707C201.817 10.6722 201.58 10.2 201.161 9.88516C200.95 9.72778 200.715 9.64905 200.452 9.59656C200.294 9.57032 199.874 9.57032 199.717 9.57032C198.72 9.59656 197.723 9.59656 196.725 9.59656Z" fill="#6530F7"/>
<path id="Vector_14" d="M217.455 9.09848C216.196 8.88861 214.175 8.73122 212.417 8.83612C210.658 8.96734 209.215 9.36084 208.008 10.2791C206.827 11.1974 205.882 12.6141 205.357 13.9259C204.832 15.2377 204.701 16.4708 204.648 18.2286C204.596 19.9601 204.596 22.2164 204.753 23.8168C204.937 25.4172 205.278 26.3616 205.908 27.4111C206.538 28.4605 207.404 29.5886 208.611 30.297C209.818 31.0054 211.341 31.2678 212.705 31.3727C214.044 31.4514 215.225 31.3464 216.275 31.2415C217.325 31.1366 218.217 31.0578 218.768 30.7431C219.345 30.4545 219.556 29.9297 219.556 29.405C219.556 28.8803 219.293 28.3293 218.899 28.067C218.506 27.8046 217.955 27.7784 217.194 27.8833C216.432 27.9883 215.409 28.1982 214.096 28.2244C212.758 28.2507 211.131 28.067 209.976 27.3324C208.847 26.5978 208.218 25.3122 207.929 23.4495C207.64 21.5867 207.666 19.1468 207.85 17.389C208.034 15.605 208.375 14.503 209.005 13.6635C209.635 12.824 210.553 12.273 211.761 12.0369C212.968 11.8008 214.49 11.8795 215.645 12.0369C216.826 12.1943 217.666 12.4042 218.269 12.3517C218.873 12.2992 219.266 11.9582 219.45 11.486C219.634 11.0137 219.634 10.384 219.372 9.9643C219.188 9.51823 218.715 9.30836 217.455 9.09848Z" fill="#6530F7"/>
</g>
<defs>
<clipPath id="clip0_2759_8930">
<rect width="240" height="38.6964" fill="white" transform="translate(0 0.651367)"/>
</clipPath>
</defs>
</svg>
